HIERARCHY
ROOT Pelvis
{
	OFFSET 0.000000 0.000000 0.000000
	CHANNELS 6 Xposition Yposition Zposition Xrotation Yrotation Zrotation
	JOINT LeftUpLeg_virtual
	{
		OFFSET 0.000000 0.000000 0.000000
		CHANNELS 3 Xrotation Yrotation Zrotation
		JOINT LeftUpLeg
		{
			OFFSET 18.735201 -5.666702 -4.541200
			CHANNELS 3 Xrotation Yrotation Zrotation
			JOINT LeftLeg
			{
				OFFSET -0.021200 -31.938179 0.493100
				CHANNELS 3 Xrotation Yrotation Zrotation
				JOINT LeftFoot
				{
					OFFSET 0.021200 -31.938179 -4.336299
					CHANNELS 3 Xrotation Yrotation Zrotation
					JOINT LeftToeBase
					{
						OFFSET 0.943001 -26.722000 15.023500
						CHANNELS 3 Xrotation Yrotation Zrotation
						End Site
						{
							OFFSET 0 0 0
						}
					}
				}
			}
		}
	}
	JOINT RightUpLeg_virtual
	{
		OFFSET 0.000000 0.000000 0.000000
		CHANNELS 3 Xrotation Yrotation Zrotation
		JOINT RightUpLeg
		{
			OFFSET -18.735201 -5.666702 -4.541200
			CHANNELS 3 Xrotation Yrotation Zrotation
			JOINT RightLeg
			{
				OFFSET 0.018946 -31.938133 0.493100
				CHANNELS 3 Xrotation Yrotation Zrotation
				JOINT RightFoot
				{
					OFFSET -0.018946 -31.938126 -4.336299
					CHANNELS 3 Xrotation Yrotation Zrotation
					JOINT RightToeBase
					{
						OFFSET -0.943001 -26.722004 15.023500
						CHANNELS 3 Xrotation Yrotation Zrotation
						End Site
						{
							OFFSET 0 0 0
						}
					}
				}
			}
		}
	}
	JOINT Hips_virtual
	{
		OFFSET 0.000000 0.000000 0.000000
		CHANNELS 3 Xrotation Yrotation Zrotation
		JOINT Hips
		{
			OFFSET -0.000000 -0.000000 -0.000000
			CHANNELS 3 Xrotation Yrotation Zrotation
			JOINT Spine
			{
				OFFSET 0.000000 10.199997 -0.299500
				CHANNELS 3 Xrotation Yrotation Zrotation
				JOINT Spine1
				{
					OFFSET 0.000000 11.900002 -1.516600
					CHANNELS 3 Xrotation Yrotation Zrotation
					JOINT Spine2
					{
						OFFSET 0.000000 13.600006 -2.842500
						CHANNELS 3 Xrotation Yrotation Zrotation
						JOINT Neck_virtual
						{
							OFFSET 0.000000 0.000000 0.000000
							CHANNELS 3 Xrotation Yrotation Zrotation
							JOINT Neck
							{
								OFFSET 0.000000 9.624100 -2.890100
								CHANNELS 3 Xrotation Yrotation Zrotation
								JOINT Head
								{
									OFFSET 0.000000 14.068802 -1.351900
									CHANNELS 3 Xrotation Yrotation Zrotation
									End Site
									{
										OFFSET 0 0 0
									}
								}
							}
						}
						JOINT LeftShoulder_virtual
						{
							OFFSET 0.000000 0.000000 0.000000
							CHANNELS 3 Xrotation Yrotation Zrotation
							JOINT LeftShoulder
							{
								OFFSET 15.263000 10.923401 -0.547700
								CHANNELS 3 Xrotation Yrotation Zrotation
								JOINT LeftArm
								{
									OFFSET 25.438599 -2.830597 -13.032500
									CHANNELS 3 Xrotation Yrotation Zrotation
									JOINT LeftForeArm
									{
										OFFSET 29.960503 0.000000 0.000000
										CHANNELS 3 Xrotation Yrotation Zrotation
										JOINT LeftHand
										{
											OFFSET 27.849251 0.000000 0.000000
											CHANNELS 3 Xrotation Yrotation Zrotation
											End Site
											{
												OFFSET 0 0 0
											}
										}
									}
								}
							}
						}
						JOINT RightShoulder_virtual
						{
							OFFSET 0.000000 0.000000 0.000000
							CHANNELS 3 Xrotation Yrotation Zrotation
							JOINT RightShoulder
							{
								OFFSET -15.263000 10.923401 -0.547700
								CHANNELS 3 Xrotation Yrotation Zrotation
								JOINT RightArm
								{
									OFFSET -25.438599 -2.830597 -13.032500
									CHANNELS 3 Xrotation Yrotation Zrotation
									JOINT RightForeArm
									{
										OFFSET -29.960503 0.000000 0.000000
										CHANNELS 3 Xrotation Yrotation Zrotation
										JOINT RightHand
										{
											OFFSET -27.849251 0.000000 0.000000
											CHANNELS 3 Xrotation Yrotation Zrotation
											End Site
											{
												OFFSET 0 0 0
											}
										}
									}
								}
							}
						}
					}
				}
			}
		}
	}
}
MOTION
Frames: 5
Frame Time: 0.03333333
-3.569234 71.935822 17.833714 0.000000 0.000000 0.000000 15.274663 45.933169 -7.207631 -83.204299 -3.764601 -33.585888 60.452030 -49.861061 4.478690 9.593940 0.121904 -11.382916 0.000000 0.000000 0.000000 15.274663 45.933169 -7.207631 27.517205 -47.899826 11.285656 38.609919 15.069902 -8.062337 -26.025524 0.841738 -5.990142 0.000000 0.000000 0.000000 15.274663 45.933169 -7.207631 0.000000 0.000000 0.000000 8.044855 9.465720 0.189748 2.263268 15.868869 -0.306818 0.000000 0.000000 0.000000 2.285586 15.868932 -0.306333 4.351505 -7.091212 0.055428 0.000000 0.000000 0.000000 2.285586 15.868932 -0.306333 3.220477 -3.244149 -3.620717 -41.393146 7.039830 -30.339707 51.159903 -0.090141 18.384158 0.000000 0.000000 0.000000 2.285586 15.868932 -0.306333 -3.204337 8.375058 -18.677606 -16.833416 -10.274739 1.972675 -36.383366 11.682214 5.462644 0.000000 0.000000 0.000000 
-3.304784 72.429626 17.902521 0.000000 0.000000 0.000000 14.644057 43.407406 -6.696843 -82.787084 -4.158642 -32.233367 60.919290 -48.515616 4.365103 8.855326 0.112746 -10.662133 0.000000 0.000000 0.000000 14.644057 43.407406 -6.696843 24.612643 -45.956340 8.616046 39.588261 16.059988 -8.179134 -25.481149 0.168311 -6.646793 0.000000 0.000000 0.000000 14.644057 43.407406 -6.696843 0.000000 0.000000 0.000000 8.129241 9.271821 0.192695 2.453885 15.715420 -0.410864 0.000000 0.000000 0.000000 2.476208 15.715461 -0.410369 4.331493 -7.028224 0.166186 0.000000 0.000000 0.000000 2.476208 15.715461 -0.410369 3.030143 -2.053839 -3.444218 -34.893626 7.814704 -28.841416 51.215245 1.798529 17.534535 0.000000 0.000000 0.000000 2.476208 15.715461 -0.410369 -3.234084 9.381073 -18.988032 -20.179965 -10.125714 2.111668 -35.764780 13.521240 7.848388 0.000000 0.000000 0.000000 
-2.968975 72.997284 17.997707 0.000000 0.000000 0.000000 13.564060 40.190554 -5.870750 -82.045072 -4.498592 -30.432290 61.594742 -46.797366 4.192372 8.033752 0.068961 -9.992699 0.000000 0.000000 0.000000 13.564060 40.190554 -5.870750 21.588136 -43.517857 5.345714 40.462956 15.265775 -8.337258 -24.899960 1.146757 -6.026838 0.000000 0.000000 0.000000 13.564060 40.190554 -5.870750 0.000001 -0.000001 0.000000 8.181867 9.032519 0.151504 2.590916 15.519595 -0.627978 0.000000 0.000000 0.000000 2.613253 15.519675 -0.627485 4.194686 -6.974914 0.388644 0.000000 0.000000 0.000000 2.613253 15.519675 -0.627485 2.760276 -0.547893 -3.344336 -27.854196 9.898202 -27.279957 51.514376 3.115319 17.933606 0.000000 0.000000 0.000000 2.613253 15.519675 -0.627485 -3.150917 9.830083 -18.703802 -24.875213 -7.756479 2.628346 -35.412687 14.042538 10.178193 0.000000 0.000000 0.000000 
-2.599576 73.622086 18.021849 0.000000 0.000000 0.000000 12.417432 36.600279 -5.035615 -81.090041 -4.922056 -28.528425 62.225482 -44.719755 3.965097 7.111134 0.009488 -9.167465 0.000000 0.000000 0.000000 12.417432 36.600279 -5.035615 18.510521 -40.865555 1.979672 41.694333 15.432555 -8.564613 -24.299288 1.277727 -5.578583 0.000000 0.000000 0.000000 12.417432 36.600279 -5.035615 0.000000 0.000001 0.000000 8.314491 8.596766 0.164919 2.876769 14.970306 -0.744335 0.000000 0.000000 0.000000 2.899134 14.970426 -0.743858 3.672976 -6.827845 0.198215 0.000000 0.000000 0.000000 2.899134 14.970426 -0.743858 2.424719 0.585070 -3.033977 -20.214601 14.627096 -26.366999 51.808030 4.381863 20.064509 0.000000 0.000000 0.000000 2.899134 14.970426 -0.743858 -3.702868 9.074005 -19.067878 -31.284674 -1.979442 6.010691 -29.451554 13.480441 9.734790 0.000000 0.000000 0.000000 
-2.248236 74.403511 17.955065 0.000000 0.000000 0.000000 11.588434 32.309889 -4.321149 -79.860129 -5.338404 -26.209236 62.390220 -42.348013 3.431406 6.199703 -0.085649 -7.628358 0.000000 0.000000 0.000000 11.588434 32.309889 -4.321149 14.613407 -37.688902 -1.765084 43.296668 15.630990 -8.821583 -23.556914 1.365767 -4.948180 0.000000 0.000000 0.000000 11.588434 32.309889 -4.321149 0.000000 -0.000002 0.000000 8.421920 8.020889 0.272344 3.090643 14.215102 -0.648842 0.000000 0.000000 0.000000 3.113027 14.215189 -0.648342 2.917426 -6.511729 -0.415294 0.000000 0.000000 0.000000 3.113027 14.215189 -0.648342 2.032841 2.042569 -2.769254 -12.439108 19.807660 -26.900311 52.208740 5.729162 21.575630 0.000000 0.000000 0.000000 3.113027 14.215189 -0.648342 -4.280432 7.096578 -20.193120 -38.687957 6.014422 11.826093 -26.099416 12.379070 9.536509 0.000000 0.000000 0.000000 
